<svg xmlns="http://www.w3.org/2000/svg" xmlns:xlink="http://www.w3.org/1999/xlink" width="632" zoomAndPan="magnify" viewBox="0 0 474 133.500001" height="178" preserveAspectRatio="xMidYMid meet" version="1.0"><defs><g/><clipPath id="be6a03ae9c"><path d="M 0.882812 0 L 118.785156 0 L 118.785156 114.890625 L 0.882812 114.890625 Z M 0.882812 0 " clip-rule="nonzero"/></clipPath><clipPath id="563c9bb557"><path d="M 415 31 L 473.113281 31 L 473.113281 103 L 415 103 Z M 415 31 " clip-rule="nonzero"/></clipPath><clipPath id="5cb0b464eb"><path d="M 186 102 L 473.113281 102 L 473.113281 133 L 186 133 Z M 186 102 " clip-rule="nonzero"/></clipPath><clipPath id="326edcc4af"><rect x="0" width="288" y="0" height="31"/></clipPath></defs><g clip-path="url(#be6a03ae9c)"><path fill="#000116" d="M 118.210938 -2.425781 L -252.988281 -0.589844 L -252.40625 116.363281 L 118.792969 114.527344 Z M 91.648438 61.265625 C 72.621094 61.363281 57.222656 76.917969 57.3125 95.9375 L 43.511719 96.007812 C 43.441406 83.101562 48.410156 70.945312 57.488281 61.78125 C 57.609375 61.660156 57.730469 61.550781 57.839844 61.429688 L -229.800781 62.855469 L -229.871094 49.054688 L 57.773438 47.628906 C 57.652344 47.519531 57.535156 47.398438 57.414062 47.285156 C 48.246094 38.207031 43.160156 26.101562 43.097656 13.195312 L 56.898438 13.128906 C 56.945312 22.34375 60.574219 30.992188 67.128906 37.480469 C 73.671875 43.964844 82.351562 47.511719 91.558594 47.464844 L 94.851562 47.449219 L 94.917969 61.25 Z M 91.648438 61.265625 " fill-opacity="1" fill-rule="nonzero"/></g><path fill="#000116" d="M 141.269531 7.8125 L 152.957031 7.8125 L 152.957031 100.53125 L 141.269531 100.53125 Z M 141.269531 7.8125 " fill-opacity="1" fill-rule="nonzero"/><path fill="#000116" d="M 170.164062 41.835938 C 176.011719 35.210938 184.1875 31.835938 194.449219 31.835938 C 204.710938 31.835938 212.886719 35.210938 218.734375 41.835938 C 224.574219 48.460938 227.5625 56.769531 227.5625 67.023438 C 227.5625 77.277344 224.574219 85.597656 218.734375 92.210938 C 212.886719 98.835938 204.710938 102.085938 194.449219 102.085938 C 184.1875 102.085938 176.011719 98.835938 170.164062 92.210938 C 164.316406 85.589844 161.335938 77.148438 161.335938 67.023438 C 161.335938 56.898438 164.324219 48.453125 170.164062 41.835938 Z M 209.636719 48.324219 C 205.613281 43.777344 200.550781 41.4375 194.441406 41.4375 C 188.332031 41.4375 183.277344 43.777344 179.117188 48.324219 C 175.09375 52.871094 173.015625 59.101562 173.015625 67.023438 C 173.015625 74.945312 175.09375 81.046875 179.117188 85.597656 C 183.269531 90.144531 188.339844 92.347656 194.441406 92.347656 C 200.542969 92.347656 205.605469 90.136719 209.636719 85.597656 C 213.789062 81.046875 215.875 74.820312 215.875 67.023438 C 215.875 59.226562 213.796875 52.871094 209.636719 48.324219 Z M 209.636719 48.324219 " fill-opacity="1" fill-rule="nonzero"/><path fill="#000116" d="M 285.113281 53.648438 C 282.90625 45.464844 276.675781 41.445312 266.675781 41.445312 C 259.539062 41.445312 254.078125 44.046875 250.1875 49.109375 C 246.425781 54.171875 244.476562 60.28125 244.476562 67.546875 C 244.476562 74.171875 246.425781 80.011719 250.1875 84.945312 C 253.953125 89.882812 259.277344 92.347656 265.898438 92.347656 C 277.199219 92.347656 283.824219 88.449219 285.898438 78.710938 L 297.199219 78.710938 C 293.695312 95.460938 283.433594 102.085938 265.644531 102.085938 C 255.648438 102.085938 247.597656 98.972656 241.75 92.609375 C 235.902344 86.246094 233.050781 77.808594 233.050781 67.546875 C 233.050781 57.285156 236.164062 48.847656 242.398438 42.097656 C 248.761719 35.210938 256.945312 31.835938 267.074219 31.835938 C 275.382812 31.835938 282.269531 33.785156 287.585938 37.808594 C 292.902344 41.835938 295.898438 47.03125 296.546875 53.648438 Z M 285.113281 53.648438 " fill-opacity="1" fill-rule="nonzero"/><path fill="#000116" d="M 360.710938 91.445312 C 360.710938 95.207031 361.097656 98.195312 361.75 100.53125 L 350.0625 100.53125 C 349.671875 98.195312 349.539062 93.257812 349.539062 85.597656 L 349.414062 85.597656 C 347.335938 96.371094 338.761719 102.085938 325.910156 102.085938 C 305.398438 102.085938 301.5 91.308594 301.5 82.734375 C 301.5 74.164062 305.914062 68.324219 312.664062 65.722656 C 316.171875 64.425781 319.414062 63.515625 322.664062 62.863281 C 325.910156 62.214844 329.285156 61.691406 332.921875 61.304688 C 336.6875 60.914062 339.160156 60.527344 340.324219 60.136719 C 347.984375 57.929688 349.023438 56.242188 349.023438 51.175781 C 349.023438 44.941406 343.3125 41.4375 333.3125 41.4375 C 326.5625 41.4375 322.011719 43.386719 320.0625 46.636719 C 318.375 49.75 318.25 50.660156 317.851562 53.125 L 306.167969 53.125 C 306.6875 48.839844 307.464844 45.726562 308.628906 43.515625 C 312.65625 35.726562 320.839844 31.828125 333.042969 31.828125 C 342.78125 31.828125 350.179688 34.6875 353.816406 37.929688 C 355.765625 39.617188 357.195312 41.566406 358.230469 44.03125 C 360.441406 48.707031 360.695312 51.691406 360.695312 55.457031 L 360.695312 91.429688 Z M 349.023438 58.585938 C 347.859375 64.433594 342.789062 66.636719 330.453125 69.101562 C 318.503906 71.308594 313.566406 74.164062 313.566406 82.476562 C 313.566406 88.710938 318.765625 92.988281 327.203125 92.988281 C 341.617188 92.988281 349.015625 86.367188 349.015625 69.355469 L 349.015625 58.578125 Z M 349.023438 58.585938 " fill-opacity="1" fill-rule="nonzero"/><path fill="#000116" d="M 372.339844 7.8125 L 384.023438 7.8125 L 384.023438 100.53125 L 372.339844 100.53125 Z M 372.339844 7.8125 " fill-opacity="1" fill-rule="nonzero"/><path fill="#000116" d="M 407.824219 21.320312 L 395.875 21.320312 L 395.875 7.8125 L 407.824219 7.8125 Z M 396.011719 33.398438 L 407.699219 33.398438 L 407.699219 100.53125 L 396.011719 100.53125 Z M 396.011719 33.398438 " fill-opacity="1" fill-rule="nonzero"/><g clip-path="url(#563c9bb557)"><path fill="#000116" d="M 426.628906 80.792969 C 427.277344 88.71875 433.117188 92.609375 443.902344 92.609375 C 448.578125 92.609375 452.601562 91.832031 456.113281 90.269531 C 459.621094 88.710938 461.4375 86.117188 461.4375 82.347656 C 461.4375 78.84375 459.488281 76.246094 457.410156 74.6875 C 456.5 73.910156 454.945312 73.125 452.863281 72.476562 C 450.785156 71.824219 449.097656 71.304688 447.664062 71.050781 C 446.367188 70.660156 444.417969 70.273438 441.691406 69.75 C 435.589844 68.585938 433.253906 68.0625 428.191406 66.113281 C 421.4375 63.253906 418.0625 59.363281 417.539062 50.921875 C 417.539062 44.6875 420.003906 40.011719 425.074219 36.773438 C 430.136719 33.523438 435.984375 31.835938 442.609375 31.835938 C 451.046875 31.835938 457.410156 33.261719 461.832031 35.988281 C 466.378906 38.714844 469.105469 43.910156 470.144531 51.699219 L 459.367188 51.699219 C 457.417969 43.386719 452.09375 41.3125 443.394531 41.3125 C 435.730469 41.3125 429.242188 44.039062 429.242188 50.273438 C 429.242188 54.558594 431.96875 56.898438 436.515625 58.457031 L 440.800781 59.757812 L 446 60.796875 C 448.335938 61.183594 450.023438 61.574219 451.199219 61.832031 C 457.558594 63.261719 461.585938 64.695312 466.132812 67.417969 C 470.808594 70.144531 473.144531 74.820312 473.144531 80.921875 C 473.144531 85.984375 471.585938 90.144531 468.34375 93.519531 C 462.109375 100.144531 453.40625 102.09375 443.410156 102.09375 C 435.621094 102.09375 429.121094 100.53125 423.933594 97.289062 C 418.734375 94.042969 415.882812 88.464844 415.359375 80.800781 L 426.660156 80.800781 Z M 426.628906 80.792969 " fill-opacity="1" fill-rule="nonzero"/></g><g clip-path="url(#5cb0b464eb)"><g transform="matrix(1, 0, 0, 1, 186, 102)"><g clip-path="url(#326edcc4af)"><g fill="#000116" fill-opacity="1"><g transform="translate(0.375383, 23.987944)"><g><path d="M 2.328125 0 L 2.328125 -15.953125 L 7.84375 -15.953125 C 9.476562 -15.953125 10.90625 -15.613281 12.125 -14.9375 C 13.351562 -14.257812 14.304688 -13.320312 14.984375 -12.125 C 15.671875 -10.9375 16.015625 -9.550781 16.015625 -7.96875 C 16.015625 -6.40625 15.671875 -5.023438 14.984375 -3.828125 C 14.304688 -2.628906 13.351562 -1.691406 12.125 -1.015625 C 10.90625 -0.335938 9.476562 0 7.84375 0 Z M 4.328125 -1.90625 L 7.84375 -1.90625 C 9.050781 -1.90625 10.113281 -2.160156 11.03125 -2.671875 C 11.957031 -3.179688 12.675781 -3.890625 13.1875 -4.796875 C 13.707031 -5.710938 13.96875 -6.769531 13.96875 -7.96875 C 13.96875 -9.1875 13.703125 -10.242188 13.171875 -11.140625 C 12.648438 -12.046875 11.925781 -12.753906 11 -13.265625 C 10.070312 -13.773438 8.988281 -14.03125 7.75 -14.03125 L 4.328125 -14.03125 Z M 4.328125 -1.90625 "/></g></g></g><g fill="#000116" fill-opacity="1"><g transform="translate(17.534737, 23.987944)"><g><path d="M 7.25 0.296875 C 6.0625 0.296875 5.007812 0.0351562 4.09375 -0.484375 C 3.1875 -1.015625 2.472656 -1.75 1.953125 -2.6875 C 1.441406 -3.625 1.1875 -4.703125 1.1875 -5.921875 C 1.1875 -7.140625 1.441406 -8.210938 1.953125 -9.140625 C 2.472656 -10.078125 3.191406 -10.804688 4.109375 -11.328125 C 5.023438 -11.859375 6.078125 -12.125 7.265625 -12.125 C 8.523438 -12.125 9.617188 -11.828125 10.546875 -11.234375 C 11.472656 -10.640625 12.179688 -9.820312 12.671875 -8.78125 C 13.171875 -7.738281 13.394531 -6.53125 13.34375 -5.15625 L 3.125 -5.15625 C 3.269531 -4.039062 3.710938 -3.148438 4.453125 -2.484375 C 5.203125 -1.828125 6.140625 -1.5 7.265625 -1.5 C 8.035156 -1.5 8.738281 -1.664062 9.375 -2 C 10.019531 -2.332031 10.523438 -2.8125 10.890625 -3.4375 L 13.046875 -3.4375 C 12.578125 -2.28125 11.828125 -1.367188 10.796875 -0.703125 C 9.765625 -0.0351562 8.582031 0.296875 7.25 0.296875 Z M 3.140625 -6.828125 L 11.4375 -6.828125 C 11.238281 -7.910156 10.765625 -8.757812 10.015625 -9.375 C 9.265625 -10 8.347656 -10.3125 7.265625 -10.3125 C 6.171875 -10.3125 5.25 -9.992188 4.5 -9.359375 C 3.757812 -8.722656 3.304688 -7.878906 3.140625 -6.828125 Z M 3.140625 -6.828125 "/></g></g></g><g fill="#000116" fill-opacity="1"><g transform="translate(32.027904, 23.987944)"><g><path d="M 6.40625 0.296875 C 4.851562 0.296875 3.609375 -0.0664062 2.671875 -0.796875 C 1.742188 -1.535156 1.265625 -2.507812 1.234375 -3.71875 L 3.125 -3.71875 C 3.15625 -3 3.457031 -2.429688 4.03125 -2.015625 C 4.601562 -1.609375 5.398438 -1.40625 6.421875 -1.40625 C 7.316406 -1.40625 8.019531 -1.5625 8.53125 -1.875 C 9.050781 -2.1875 9.3125 -2.609375 9.3125 -3.140625 C 9.3125 -3.671875 9.039062 -4.101562 8.5 -4.4375 C 7.96875 -4.769531 7.125 -5.035156 5.96875 -5.234375 C 4.445312 -5.492188 3.316406 -5.910156 2.578125 -6.484375 C 1.847656 -7.066406 1.484375 -7.820312 1.484375 -8.75 C 1.484375 -9.8125 1.890625 -10.640625 2.703125 -11.234375 C 3.515625 -11.828125 4.632812 -12.125 6.0625 -12.125 C 7.519531 -12.125 8.679688 -11.800781 9.546875 -11.15625 C 10.421875 -10.507812 10.898438 -9.597656 10.984375 -8.421875 L 9.09375 -8.421875 C 9.03125 -9.078125 8.734375 -9.578125 8.203125 -9.921875 C 7.679688 -10.265625 6.972656 -10.4375 6.078125 -10.4375 C 5.234375 -10.4375 4.570312 -10.285156 4.09375 -9.984375 C 3.613281 -9.691406 3.375 -9.28125 3.375 -8.75 C 3.375 -8.25 3.613281 -7.859375 4.09375 -7.578125 C 4.582031 -7.296875 5.441406 -7.03125 6.671875 -6.78125 C 9.691406 -6.195312 11.203125 -4.96875 11.203125 -3.09375 C 11.203125 -2.082031 10.765625 -1.265625 9.890625 -0.640625 C 9.023438 -0.015625 7.863281 0.296875 6.40625 0.296875 Z M 6.40625 0.296875 "/></g></g></g><g fill="#000116" fill-opacity="1"><g transform="translate(44.151111, 23.987944)"><g><path d="M 7.21875 0 C 5.914062 0 4.898438 -0.367188 4.171875 -1.109375 C 3.453125 -1.859375 3.09375 -2.910156 3.09375 -4.265625 L 3.09375 -10.0625 L 0.609375 -10.0625 L 0.609375 -11.828125 L 1.796875 -11.828125 C 2.347656 -11.828125 2.726562 -11.914062 2.9375 -12.09375 C 3.144531 -12.28125 3.28125 -12.640625 3.34375 -13.171875 L 3.53125 -14.765625 L 5.015625 -14.765625 L 5.015625 -11.828125 L 8.84375 -11.828125 L 8.84375 -10.0625 L 5.015625 -10.0625 L 5.015625 -4.34375 C 5.015625 -2.675781 5.78125 -1.84375 7.3125 -1.84375 L 9 -1.84375 L 9 0 Z M 7.21875 0 "/></g></g></g><g fill="#000116" fill-opacity="1"><g transform="translate(54.268984, 23.987944)"><g><path d="M 2.125 0 L 2.125 -11.828125 L 4.03125 -11.828125 L 4.03125 0 Z M 1.53125 -15.265625 C 1.53125 -15.703125 1.671875 -16.0625 1.953125 -16.34375 C 2.234375 -16.625 2.609375 -16.765625 3.078125 -16.765625 C 3.546875 -16.765625 3.914062 -16.625 4.1875 -16.34375 C 4.46875 -16.0625 4.609375 -15.703125 4.609375 -15.265625 C 4.609375 -14.835938 4.46875 -14.484375 4.1875 -14.203125 C 3.914062 -13.921875 3.546875 -13.78125 3.078125 -13.78125 C 2.609375 -13.78125 2.234375 -13.921875 1.953125 -14.203125 C 1.671875 -14.484375 1.53125 -14.835938 1.53125 -15.265625 Z M 1.53125 -15.265625 "/></g></g></g><g fill="#000116" fill-opacity="1"><g transform="translate(60.42174, 23.987944)"><g><path d="M 2.125 0 L 2.125 -11.828125 L 3.6875 -11.828125 L 3.890625 -10.09375 C 4.410156 -10.800781 5.035156 -11.316406 5.765625 -11.640625 C 6.503906 -11.960938 7.269531 -12.125 8.0625 -12.125 C 9.644531 -12.125 10.875 -11.617188 11.75 -10.609375 C 12.632812 -9.609375 13.078125 -8.265625 13.078125 -6.578125 L 13.078125 0 L 11.15625 0 L 11.15625 -6.40625 C 11.15625 -7.601562 10.851562 -8.550781 10.25 -9.25 C 9.65625 -9.945312 8.84375 -10.296875 7.8125 -10.296875 C 7.082031 -10.296875 6.429688 -10.113281 5.859375 -9.75 C 5.296875 -9.394531 4.847656 -8.890625 4.515625 -8.234375 C 4.191406 -7.585938 4.03125 -6.832031 4.03125 -5.96875 L 4.03125 0 Z M 2.125 0 "/></g></g></g><g fill="#000116" fill-opacity="1"><g transform="translate(75.393454, 23.987944)"><g><path d="M 5.984375 0.1875 C 4.554688 0.1875 3.441406 -0.132812 2.640625 -0.78125 C 1.835938 -1.425781 1.4375 -2.304688 1.4375 -3.421875 C 1.4375 -4.492188 1.804688 -5.347656 2.546875 -5.984375 C 3.296875 -6.628906 4.285156 -6.953125 5.515625 -6.953125 L 10.34375 -6.953125 L 10.34375 -7.375 C 10.34375 -8.300781 10.050781 -9.023438 9.46875 -9.546875 C 8.894531 -10.078125 8.109375 -10.34375 7.109375 -10.34375 C 6.347656 -10.34375 5.6875 -10.171875 5.125 -9.828125 C 4.5625 -9.484375 4.179688 -9.023438 3.984375 -8.453125 L 2.046875 -8.453125 C 2.304688 -9.585938 2.890625 -10.484375 3.796875 -11.140625 C 4.703125 -11.796875 5.796875 -12.125 7.078125 -12.125 C 8.117188 -12.125 9.023438 -11.925781 9.796875 -11.53125 C 10.566406 -11.144531 11.164062 -10.609375 11.59375 -9.921875 C 12.03125 -9.234375 12.25 -8.429688 12.25 -7.515625 L 12.25 0 L 10.6875 0 L 10.484375 -1.640625 C 9.398438 -0.421875 7.898438 0.1875 5.984375 0.1875 Z M 3.34375 -3.4375 C 3.34375 -2.863281 3.585938 -2.398438 4.078125 -2.046875 C 4.566406 -1.703125 5.226562 -1.53125 6.0625 -1.53125 C 6.882812 -1.53125 7.613281 -1.6875 8.25 -2 C 8.882812 -2.320312 9.390625 -2.765625 9.765625 -3.328125 C 10.148438 -3.890625 10.347656 -4.535156 10.359375 -5.265625 L 5.578125 -5.265625 C 4.929688 -5.265625 4.394531 -5.097656 3.96875 -4.765625 C 3.550781 -4.441406 3.34375 -4 3.34375 -3.4375 Z M 3.34375 -3.4375 "/></g></g></g><g fill="#000116" fill-opacity="1"><g transform="translate(89.157398, 23.987944)"><g><path d="M 7.21875 0 C 5.914062 0 4.898438 -0.367188 4.171875 -1.109375 C 3.453125 -1.859375 3.09375 -2.910156 3.09375 -4.265625 L 3.09375 -10.0625 L 0.609375 -10.0625 L 0.609375 -11.828125 L 1.796875 -11.828125 C 2.347656 -11.828125 2.726562 -11.914062 2.9375 -12.09375 C 3.144531 -12.28125 3.28125 -12.640625 3.34375 -13.171875 L 3.53125 -14.765625 L 5.015625 -14.765625 L 5.015625 -11.828125 L 8.84375 -11.828125 L 8.84375 -10.0625 L 5.015625 -10.0625 L 5.015625 -4.34375 C 5.015625 -2.675781 5.78125 -1.84375 7.3125 -1.84375 L 9 -1.84375 L 9 0 Z M 7.21875 0 "/></g></g></g><g fill="#000116" fill-opacity="1"><g transform="translate(99.275272, 23.987944)"><g><path d="M 2.125 0 L 2.125 -11.828125 L 4.03125 -11.828125 L 4.03125 0 Z M 1.53125 -15.265625 C 1.53125 -15.703125 1.671875 -16.0625 1.953125 -16.34375 C 2.234375 -16.625 2.609375 -16.765625 3.078125 -16.765625 C 3.546875 -16.765625 3.914062 -16.625 4.1875 -16.34375 C 4.46875 -16.0625 4.609375 -15.703125 4.609375 -15.265625 C 4.609375 -14.835938 4.46875 -14.484375 4.1875 -14.203125 C 3.914062 -13.921875 3.546875 -13.78125 3.078125 -13.78125 C 2.609375 -13.78125 2.234375 -13.921875 1.953125 -14.203125 C 1.671875 -14.484375 1.53125 -14.835938 1.53125 -15.265625 Z M 1.53125 -15.265625 "/></g></g></g><g fill="#000116" fill-opacity="1"><g transform="translate(105.428028, 23.987944)"><g><path d="M 7.453125 0.296875 C 6.222656 0.296875 5.132812 0.03125 4.1875 -0.5 C 3.25 -1.03125 2.515625 -1.765625 1.984375 -2.703125 C 1.453125 -3.648438 1.1875 -4.722656 1.1875 -5.921875 C 1.1875 -7.140625 1.453125 -8.210938 1.984375 -9.140625 C 2.515625 -10.066406 3.25 -10.796875 4.1875 -11.328125 C 5.132812 -11.859375 6.222656 -12.125 7.453125 -12.125 C 8.679688 -12.125 9.765625 -11.859375 10.703125 -11.328125 C 11.648438 -10.796875 12.390625 -10.066406 12.921875 -9.140625 C 13.453125 -8.210938 13.71875 -7.140625 13.71875 -5.921875 C 13.71875 -4.722656 13.453125 -3.648438 12.921875 -2.703125 C 12.390625 -1.765625 11.648438 -1.03125 10.703125 -0.5 C 9.765625 0.03125 8.679688 0.296875 7.453125 0.296875 Z M 3.09375 -5.921875 C 3.09375 -5.054688 3.28125 -4.289062 3.65625 -3.625 C 4.03125 -2.96875 4.539062 -2.457031 5.1875 -2.09375 C 5.84375 -1.726562 6.597656 -1.546875 7.453125 -1.546875 C 8.296875 -1.546875 9.046875 -1.726562 9.703125 -2.09375 C 10.359375 -2.457031 10.867188 -2.96875 11.234375 -3.625 C 11.609375 -4.289062 11.796875 -5.054688 11.796875 -5.921875 C 11.796875 -6.785156 11.609375 -7.546875 11.234375 -8.203125 C 10.867188 -8.859375 10.359375 -9.367188 9.703125 -9.734375 C 9.046875 -10.109375 8.296875 -10.296875 7.453125 -10.296875 C 6.597656 -10.296875 5.84375 -10.109375 5.1875 -9.734375 C 4.539062 -9.367188 4.03125 -8.859375 3.65625 -8.203125 C 3.28125 -7.546875 3.09375 -6.785156 3.09375 -5.921875 Z M 3.09375 -5.921875 "/></g></g></g><g fill="#000116" fill-opacity="1"><g transform="translate(120.331372, 23.987944)"><g><path d="M 2.125 0 L 2.125 -11.828125 L 3.6875 -11.828125 L 3.890625 -10.09375 C 4.410156 -10.800781 5.035156 -11.316406 5.765625 -11.640625 C 6.503906 -11.960938 7.269531 -12.125 8.0625 -12.125 C 9.644531 -12.125 10.875 -11.617188 11.75 -10.609375 C 12.632812 -9.609375 13.078125 -8.265625 13.078125 -6.578125 L 13.078125 0 L 11.15625 0 L 11.15625 -6.40625 C 11.15625 -7.601562 10.851562 -8.550781 10.25 -9.25 C 9.65625 -9.945312 8.84375 -10.296875 7.8125 -10.296875 C 7.082031 -10.296875 6.429688 -10.113281 5.859375 -9.75 C 5.296875 -9.394531 4.847656 -8.890625 4.515625 -8.234375 C 4.191406 -7.585938 4.03125 -6.832031 4.03125 -5.96875 L 4.03125 0 Z M 2.125 0 "/></g></g></g><g fill="#000116" fill-opacity="1"><g transform="translate(135.303086, 23.987944)"><g/></g></g><g fill="#000116" fill-opacity="1"><g transform="translate(140.954505, 23.987944)"><g><path d="M 2.328125 0 L 2.328125 -15.953125 L 4.328125 -15.953125 L 4.328125 0 Z M 2.328125 0 "/></g></g></g><g fill="#000116" fill-opacity="1"><g transform="translate(147.608599, 23.987944)"><g><path d="M 2.125 0 L 2.125 -11.828125 L 3.6875 -11.828125 L 3.890625 -10.09375 C 4.410156 -10.800781 5.035156 -11.316406 5.765625 -11.640625 C 6.503906 -11.960938 7.269531 -12.125 8.0625 -12.125 C 9.644531 -12.125 10.875 -11.617188 11.75 -10.609375 C 12.632812 -9.609375 13.078125 -8.265625 13.078125 -6.578125 L 13.078125 0 L 11.15625 0 L 11.15625 -6.40625 C 11.15625 -7.601562 10.851562 -8.550781 10.25 -9.25 C 9.65625 -9.945312 8.84375 -10.296875 7.8125 -10.296875 C 7.082031 -10.296875 6.429688 -10.113281 5.859375 -9.75 C 5.296875 -9.394531 4.847656 -8.890625 4.515625 -8.234375 C 4.191406 -7.585938 4.03125 -6.832031 4.03125 -5.96875 L 4.03125 0 Z M 2.125 0 "/></g></g></g><g fill="#000116" fill-opacity="1"><g transform="translate(162.580313, 23.987944)"><g><path d="M 6.40625 0.296875 C 4.851562 0.296875 3.609375 -0.0664062 2.671875 -0.796875 C 1.742188 -1.535156 1.265625 -2.507812 1.234375 -3.71875 L 3.125 -3.71875 C 3.15625 -3 3.457031 -2.429688 4.03125 -2.015625 C 4.601562 -1.609375 5.398438 -1.40625 6.421875 -1.40625 C 7.316406 -1.40625 8.019531 -1.5625 8.53125 -1.875 C 9.050781 -2.1875 9.3125 -2.609375 9.3125 -3.140625 C 9.3125 -3.671875 9.039062 -4.101562 8.5 -4.4375 C 7.96875 -4.769531 7.125 -5.035156 5.96875 -5.234375 C 4.445312 -5.492188 3.316406 -5.910156 2.578125 -6.484375 C 1.847656 -7.066406 1.484375 -7.820312 1.484375 -8.75 C 1.484375 -9.8125 1.890625 -10.640625 2.703125 -11.234375 C 3.515625 -11.828125 4.632812 -12.125 6.0625 -12.125 C 7.519531 -12.125 8.679688 -11.800781 9.546875 -11.15625 C 10.421875 -10.507812 10.898438 -9.597656 10.984375 -8.421875 L 9.09375 -8.421875 C 9.03125 -9.078125 8.734375 -9.578125 8.203125 -9.921875 C 7.679688 -10.265625 6.972656 -10.4375 6.078125 -10.4375 C 5.234375 -10.4375 4.570312 -10.285156 4.09375 -9.984375 C 3.613281 -9.691406 3.375 -9.28125 3.375 -8.75 C 3.375 -8.25 3.613281 -7.859375 4.09375 -7.578125 C 4.582031 -7.296875 5.441406 -7.03125 6.671875 -6.78125 C 9.691406 -6.195312 11.203125 -4.96875 11.203125 -3.09375 C 11.203125 -2.082031 10.765625 -1.265625 9.890625 -0.640625 C 9.023438 -0.015625 7.863281 0.296875 6.40625 0.296875 Z M 6.40625 0.296875 "/></g></g></g><g fill="#000116" fill-opacity="1"><g transform="translate(175.022551, 23.987944)"><g><path d="M 2.125 0 L 2.125 -11.828125 L 4.03125 -11.828125 L 4.03125 0 Z M 1.53125 -15.265625 C 1.53125 -15.703125 1.671875 -16.0625 1.953125 -16.34375 C 2.234375 -16.625 2.609375 -16.765625 3.078125 -16.765625 C 3.546875 -16.765625 3.914062 -16.625 4.1875 -16.34375 C 4.46875 -16.0625 4.609375 -15.703125 4.609375 -15.265625 C 4.609375 -14.835938 4.46875 -14.484375 4.1875 -14.203125 C 3.914062 -13.921875 3.546875 -13.78125 3.078125 -13.78125 C 2.609375 -13.78125 2.234375 -13.921875 1.953125 -14.203125 C 1.671875 -14.484375 1.53125 -14.835938 1.53125 -15.265625 Z M 1.53125 -15.265625 "/></g></g></g><g fill="#000116" fill-opacity="1"><g transform="translate(181.175308, 23.987944)"><g><path d="M 7.40625 4.859375 C 5.90625 4.859375 4.648438 4.488281 3.640625 3.75 C 2.640625 3.007812 2.035156 2.007812 1.828125 0.75 L 3.765625 0.75 C 3.941406 1.46875 4.347656 2.035156 4.984375 2.453125 C 5.628906 2.867188 6.4375 3.078125 7.40625 3.078125 C 8.644531 3.078125 9.609375 2.742188 10.296875 2.078125 C 10.984375 1.410156 11.328125 0.46875 11.328125 -0.75 L 11.328125 -1.875 C 10.804688 -1.320312 10.179688 -0.890625 9.453125 -0.578125 C 8.722656 -0.265625 7.929688 -0.109375 7.078125 -0.109375 C 5.960938 -0.109375 4.957031 -0.367188 4.0625 -0.890625 C 3.175781 -1.421875 2.472656 -2.132812 1.953125 -3.03125 C 1.441406 -3.9375 1.1875 -4.96875 1.1875 -6.125 C 1.1875 -7.28125 1.441406 -8.304688 1.953125 -9.203125 C 2.472656 -10.097656 3.175781 -10.804688 4.0625 -11.328125 C 4.957031 -11.859375 5.960938 -12.125 7.078125 -12.125 C 7.972656 -12.125 8.796875 -11.957031 9.546875 -11.625 C 10.304688 -11.289062 10.941406 -10.828125 11.453125 -10.234375 L 11.65625 -11.828125 L 13.234375 -11.828125 L 13.234375 -0.6875 C 13.234375 0.425781 12.992188 1.398438 12.515625 2.234375 C 12.035156 3.066406 11.359375 3.710938 10.484375 4.171875 C 9.617188 4.628906 8.59375 4.859375 7.40625 4.859375 Z M 3.09375 -6.125 C 3.09375 -5.320312 3.269531 -4.601562 3.625 -3.96875 C 3.988281 -3.34375 4.488281 -2.851562 5.125 -2.5 C 5.757812 -2.15625 6.484375 -1.984375 7.296875 -1.984375 C 8.109375 -1.984375 8.828125 -2.15625 9.453125 -2.5 C 10.085938 -2.851562 10.582031 -3.34375 10.9375 -3.96875 C 11.300781 -4.601562 11.484375 -5.320312 11.484375 -6.125 C 11.484375 -6.925781 11.300781 -7.640625 10.9375 -8.265625 C 10.582031 -8.890625 10.085938 -9.378906 9.453125 -9.734375 C 8.828125 -10.097656 8.109375 -10.28125 7.296875 -10.28125 C 6.484375 -10.28125 5.757812 -10.097656 5.125 -9.734375 C 4.488281 -9.378906 3.988281 -8.890625 3.625 -8.265625 C 3.269531 -7.640625 3.09375 -6.925781 3.09375 -6.125 Z M 3.09375 -6.125 "/></g></g></g><g fill="#000116" fill-opacity="1"><g transform="translate(196.534409, 23.987944)"><g><path d="M 2.125 0 L 2.125 -16.859375 L 4.03125 -16.859375 L 4.03125 -10.28125 C 4.550781 -10.914062 5.164062 -11.378906 5.875 -11.671875 C 6.59375 -11.972656 7.332031 -12.125 8.09375 -12.125 C 9.65625 -12.125 10.875 -11.632812 11.75 -10.65625 C 12.632812 -9.675781 13.078125 -8.34375 13.078125 -6.65625 L 13.078125 0 L 11.15625 0 L 11.15625 -6.46875 C 11.15625 -7.65625 10.859375 -8.585938 10.265625 -9.265625 C 9.679688 -9.953125 8.875 -10.296875 7.84375 -10.296875 C 6.726562 -10.296875 5.8125 -9.910156 5.09375 -9.140625 C 4.382812 -8.378906 4.03125 -7.34375 4.03125 -6.03125 L 4.03125 0 Z M 2.125 0 "/></g></g></g><g fill="#000116" fill-opacity="1"><g transform="translate(211.141511, 23.987944)"><g><path d="M 7.21875 0 C 5.914062 0 4.898438 -0.367188 4.171875 -1.109375 C 3.453125 -1.859375 3.09375 -2.910156 3.09375 -4.265625 L 3.09375 -10.0625 L 0.609375 -10.0625 L 0.609375 -11.828125 L 1.796875 -11.828125 C 2.347656 -11.828125 2.726562 -11.914062 2.9375 -12.09375 C 3.144531 -12.28125 3.28125 -12.640625 3.34375 -13.171875 L 3.53125 -14.765625 L 5.015625 -14.765625 L 5.015625 -11.828125 L 8.84375 -11.828125 L 8.84375 -10.0625 L 5.015625 -10.0625 L 5.015625 -4.34375 C 5.015625 -2.675781 5.78125 -1.84375 7.3125 -1.84375 L 9 -1.84375 L 9 0 Z M 7.21875 0 "/></g></g></g><g fill="#000116" fill-opacity="1"><g transform="translate(221.031499, 23.987944)"><g><path d="M 6.40625 0.296875 C 4.851562 0.296875 3.609375 -0.0664062 2.671875 -0.796875 C 1.742188 -1.535156 1.265625 -2.507812 1.234375 -3.71875 L 3.125 -3.71875 C 3.15625 -3 3.457031 -2.429688 4.03125 -2.015625 C 4.601562 -1.609375 5.398438 -1.40625 6.421875 -1.40625 C 7.316406 -1.40625 8.019531 -1.5625 8.53125 -1.875 C 9.050781 -2.1875 9.3125 -2.609375 9.3125 -3.140625 C 9.3125 -3.671875 9.039062 -4.101562 8.5 -4.4375 C 7.96875 -4.769531 7.125 -5.035156 5.96875 -5.234375 C 4.445312 -5.492188 3.316406 -5.910156 2.578125 -6.484375 C 1.847656 -7.066406 1.484375 -7.820312 1.484375 -8.75 C 1.484375 -9.8125 1.890625 -10.640625 2.703125 -11.234375 C 3.515625 -11.828125 4.632812 -12.125 6.0625 -12.125 C 7.519531 -12.125 8.679688 -11.800781 9.546875 -11.15625 C 10.421875 -10.507812 10.898438 -9.597656 10.984375 -8.421875 L 9.09375 -8.421875 C 9.03125 -9.078125 8.734375 -9.578125 8.203125 -9.921875 C 7.679688 -10.265625 6.972656 -10.4375 6.078125 -10.4375 C 5.234375 -10.4375 4.570312 -10.285156 4.09375 -9.984375 C 3.613281 -9.691406 3.375 -9.28125 3.375 -8.75 C 3.375 -8.25 3.613281 -7.859375 4.09375 -7.578125 C 4.582031 -7.296875 5.441406 -7.03125 6.671875 -6.78125 C 9.691406 -6.195312 11.203125 -4.96875 11.203125 -3.09375 C 11.203125 -2.082031 10.765625 -1.265625 9.890625 -0.640625 C 9.023438 -0.015625 7.863281 0.296875 6.40625 0.296875 Z M 6.40625 0.296875 "/></g></g></g><g fill="#000116" fill-opacity="1"><g transform="translate(232.9724, 23.987944)"><g/></g></g><g fill="#000116" fill-opacity="1"><g transform="translate(238.623819, 23.987944)"><g><path d="M 12.78125 0 L 12.78125 -7.171875 L 4.328125 -7.171875 L 4.328125 0 L 2.328125 0 L 2.328125 -15.953125 L 4.328125 -15.953125 L 4.328125 -9.09375 L 12.78125 -9.09375 L 12.78125 -15.953125 L 14.78125 -15.953125 L 14.78125 0 Z M 12.78125 0 "/></g></g></g><g fill="#000116" fill-opacity="1"><g transform="translate(255.737607, 23.987944)"><g><path d="M 6.828125 0.296875 C 5.285156 0.296875 4.078125 -0.203125 3.203125 -1.203125 C 2.328125 -2.210938 1.890625 -3.554688 1.890625 -5.234375 L 1.890625 -11.828125 L 3.796875 -11.828125 L 3.796875 -5.421875 C 3.796875 -4.234375 4.085938 -3.289062 4.671875 -2.59375 C 5.265625 -1.894531 6.066406 -1.546875 7.078125 -1.546875 C 8.191406 -1.546875 9.09375 -1.941406 9.78125 -2.734375 C 10.476562 -3.523438 10.828125 -4.566406 10.828125 -5.859375 L 10.828125 -11.828125 L 12.734375 -11.828125 L 12.734375 0 L 11.15625 0 L 10.953125 -1.734375 C 10.441406 -1.035156 9.820312 -0.519531 9.09375 -0.1875 C 8.375 0.132812 7.617188 0.296875 6.828125 0.296875 Z M 6.828125 0.296875 "/></g></g></g><g fill="#000116" fill-opacity="1"><g transform="translate(270.595371, 23.987944)"><g><path d="M 8.5625 0.296875 C 7.59375 0.296875 6.707031 0.109375 5.90625 -0.265625 C 5.113281 -0.648438 4.453125 -1.171875 3.921875 -1.828125 L 3.6875 0 L 2.125 0 L 2.125 -16.859375 L 4.03125 -16.859375 L 4.03125 -10.140625 C 4.5625 -10.765625 5.21875 -11.25 6 -11.59375 C 6.78125 -11.945312 7.632812 -12.125 8.5625 -12.125 C 9.726562 -12.125 10.765625 -11.851562 11.671875 -11.3125 C 12.578125 -10.769531 13.285156 -10.035156 13.796875 -9.109375 C 14.316406 -8.179688 14.578125 -7.117188 14.578125 -5.921875 C 14.578125 -4.722656 14.316406 -3.65625 13.796875 -2.71875 C 13.285156 -1.789062 12.578125 -1.054688 11.671875 -0.515625 C 10.765625 0.0234375 9.726562 0.296875 8.5625 0.296875 Z M 3.96875 -5.921875 C 3.96875 -5.066406 4.148438 -4.3125 4.515625 -3.65625 C 4.890625 -3 5.40625 -2.484375 6.0625 -2.109375 C 6.71875 -1.734375 7.46875 -1.546875 8.3125 -1.546875 C 9.175781 -1.546875 9.9375 -1.734375 10.59375 -2.109375 C 11.25 -2.484375 11.757812 -3 12.125 -3.65625 C 12.488281 -4.3125 12.671875 -5.066406 12.671875 -5.921875 C 12.671875 -6.773438 12.488281 -7.53125 12.125 -8.1875 C 11.757812 -8.851562 11.25 -9.367188 10.59375 -9.734375 C 9.9375 -10.109375 9.175781 -10.296875 8.3125 -10.296875 C 7.46875 -10.296875 6.71875 -10.109375 6.0625 -9.734375 C 5.40625 -9.367188 4.890625 -8.851562 4.515625 -8.1875 C 4.148438 -7.53125 3.96875 -6.773438 3.96875 -5.921875 Z M 3.96875 -5.921875 "/></g></g></g></g></g></g></svg>