<svg xmlns="http://www.w3.org/2000/svg" xmlns:xlink="http://www.w3.org/1999/xlink" width="632" zoomAndPan="magnify" viewBox="0 0 474 133.500001" height="178" preserveAspectRatio="xMidYMid meet" version="1.0"><defs><clipPath id="75b29e44cc"><path d="M 0.882812 8 L 118.785156 8 L 118.785156 125.453125 L 0.882812 125.453125 Z M 0.882812 8 " clip-rule="nonzero"/></clipPath><clipPath id="c71e3af12f"><path d="M 415 42 L 473.113281 42 L 473.113281 113 L 415 113 Z M 415 42 " clip-rule="nonzero"/></clipPath></defs><g clip-path="url(#75b29e44cc)"><path fill="#000116" d="M 118.210938 8.132812 L -252.988281 9.96875 L -252.40625 126.921875 L 118.792969 125.085938 Z M 91.648438 71.824219 C 72.621094 71.921875 57.222656 87.476562 57.3125 106.5 L 43.511719 106.566406 C 43.441406 93.660156 48.410156 81.503906 57.488281 72.339844 C 57.609375 72.222656 57.730469 72.109375 57.839844 71.988281 L -229.800781 73.417969 L -229.871094 59.617188 L 57.773438 58.1875 C 57.652344 58.078125 57.535156 57.957031 57.414062 57.847656 C 48.246094 48.765625 43.160156 36.660156 43.097656 23.753906 L 56.898438 23.6875 C 56.945312 32.902344 60.574219 41.550781 67.128906 48.039062 C 73.671875 54.523438 82.351562 58.070312 91.558594 58.023438 L 94.851562 58.011719 L 94.917969 71.808594 Z M 91.648438 71.824219 " fill-opacity="1" fill-rule="nonzero"/></g><path fill="#000116" d="M 141.269531 18.371094 L 152.957031 18.371094 L 152.957031 111.089844 L 141.269531 111.089844 Z M 141.269531 18.371094 " fill-opacity="1" fill-rule="nonzero"/><path fill="#000116" d="M 170.164062 52.394531 C 176.011719 45.769531 184.1875 42.394531 194.449219 42.394531 C 204.710938 42.394531 212.886719 45.769531 218.734375 52.394531 C 224.574219 59.019531 227.5625 67.328125 227.5625 77.582031 C 227.5625 87.835938 224.574219 96.15625 218.734375 102.773438 C 212.886719 109.394531 204.710938 112.644531 194.449219 112.644531 C 184.1875 112.644531 176.011719 109.394531 170.164062 102.773438 C 164.316406 96.148438 161.335938 87.710938 161.335938 77.582031 C 161.335938 67.457031 164.324219 59.011719 170.164062 52.394531 Z M 209.636719 58.882812 C 205.613281 54.335938 200.550781 52 194.441406 52 C 188.332031 52 183.277344 54.335938 179.117188 58.882812 C 175.09375 63.433594 173.015625 69.660156 173.015625 77.582031 C 173.015625 85.507812 175.09375 91.609375 179.117188 96.15625 C 183.269531 100.703125 188.339844 102.90625 194.441406 102.90625 C 200.542969 102.90625 205.605469 100.695312 209.636719 96.15625 C 213.789062 91.609375 215.875 85.378906 215.875 77.582031 C 215.875 69.785156 213.796875 63.433594 209.636719 58.882812 Z M 209.636719 58.882812 " fill-opacity="1" fill-rule="nonzero"/><path fill="#000116" d="M 285.113281 64.207031 C 282.90625 56.023438 276.675781 52.007812 266.675781 52.007812 C 259.539062 52.007812 254.078125 54.605469 250.1875 59.667969 C 246.425781 64.730469 244.476562 70.839844 244.476562 78.105469 C 244.476562 84.730469 246.425781 90.570312 250.1875 95.503906 C 253.953125 100.441406 259.277344 102.90625 265.898438 102.90625 C 277.199219 102.90625 283.824219 99.007812 285.898438 89.269531 L 297.199219 89.269531 C 293.695312 106.019531 283.433594 112.644531 265.644531 112.644531 C 255.648438 112.644531 247.597656 109.53125 241.75 103.167969 C 235.902344 96.804688 233.050781 88.367188 233.050781 78.105469 C 233.050781 67.84375 236.164062 59.40625 242.398438 52.65625 C 248.761719 45.769531 256.945312 42.394531 267.074219 42.394531 C 275.382812 42.394531 282.269531 44.34375 287.585938 48.371094 C 292.902344 52.394531 295.898438 57.59375 296.546875 64.207031 Z M 285.113281 64.207031 " fill-opacity="1" fill-rule="nonzero"/><path fill="#000116" d="M 360.710938 102.003906 C 360.710938 105.765625 361.097656 108.753906 361.75 111.089844 L 350.0625 111.089844 C 349.671875 108.753906 349.539062 103.816406 349.539062 96.15625 L 349.414062 96.15625 C 347.335938 106.929688 338.761719 112.644531 325.910156 112.644531 C 305.398438 112.644531 301.5 101.867188 301.5 93.296875 C 301.5 84.722656 305.914062 78.882812 312.664062 76.285156 C 316.171875 74.984375 319.414062 74.074219 322.664062 73.421875 C 325.910156 72.773438 329.285156 72.25 332.921875 71.863281 C 336.6875 71.472656 339.160156 71.085938 340.324219 70.699219 C 347.984375 68.488281 349.023438 66.800781 349.023438 61.738281 C 349.023438 55.5 343.3125 52 333.3125 52 C 326.5625 52 322.011719 53.949219 320.0625 57.195312 C 318.375 60.308594 318.25 61.222656 317.851562 63.6875 L 306.167969 63.6875 C 306.6875 59.398438 307.464844 56.285156 308.628906 54.074219 C 312.65625 46.285156 320.839844 42.386719 333.042969 42.386719 C 342.78125 42.386719 350.179688 45.246094 353.816406 48.488281 C 355.765625 50.175781 357.195312 52.125 358.230469 54.589844 C 360.441406 59.265625 360.695312 62.25 360.695312 66.015625 L 360.695312 101.988281 Z M 349.023438 69.144531 C 347.859375 74.992188 342.789062 77.195312 330.453125 79.660156 C 318.503906 81.871094 313.566406 84.722656 313.566406 93.035156 C 313.566406 99.269531 318.765625 103.546875 327.203125 103.546875 C 341.617188 103.546875 349.015625 96.925781 349.015625 79.914062 L 349.015625 69.136719 Z M 349.023438 69.144531 " fill-opacity="1" fill-rule="nonzero"/><path fill="#000116" d="M 372.339844 18.371094 L 384.023438 18.371094 L 384.023438 111.089844 L 372.339844 111.089844 Z M 372.339844 18.371094 " fill-opacity="1" fill-rule="nonzero"/><path fill="#000116" d="M 407.824219 31.878906 L 395.875 31.878906 L 395.875 18.371094 L 407.824219 18.371094 Z M 396.011719 43.957031 L 407.699219 43.957031 L 407.699219 111.089844 L 396.011719 111.089844 Z M 396.011719 43.957031 " fill-opacity="1" fill-rule="nonzero"/><g clip-path="url(#c71e3af12f)"><path fill="#000116" d="M 426.628906 91.355469 C 427.277344 99.277344 433.117188 103.167969 443.902344 103.167969 C 448.578125 103.167969 452.601562 102.390625 456.113281 100.832031 C 459.621094 99.269531 461.4375 96.679688 461.4375 92.90625 C 461.4375 89.40625 459.488281 86.804688 457.410156 85.246094 C 456.5 84.46875 454.945312 83.683594 452.863281 83.035156 C 450.785156 82.386719 449.097656 81.863281 447.664062 81.609375 C 446.367188 81.21875 444.417969 80.832031 441.691406 80.308594 C 435.589844 79.144531 433.253906 78.621094 428.191406 76.671875 C 421.4375 73.8125 418.0625 69.921875 417.539062 61.484375 C 417.539062 55.246094 420.003906 50.570312 425.074219 47.332031 C 430.136719 44.082031 435.984375 42.394531 442.609375 42.394531 C 451.046875 42.394531 457.410156 43.820312 461.832031 46.546875 C 466.378906 49.273438 469.105469 54.46875 470.144531 62.257812 L 459.367188 62.257812 C 457.417969 53.949219 452.09375 51.871094 443.394531 51.871094 C 435.730469 51.871094 429.242188 54.597656 429.242188 60.832031 C 429.242188 65.121094 431.96875 67.457031 436.515625 69.015625 L 440.800781 70.316406 L 446 71.355469 C 448.335938 71.742188 450.023438 72.132812 451.199219 72.394531 C 457.558594 73.820312 461.585938 75.253906 466.132812 77.980469 C 470.808594 80.703125 473.144531 85.378906 473.144531 91.480469 C 473.144531 96.542969 471.585938 100.703125 468.34375 104.078125 C 462.109375 110.703125 453.40625 112.652344 443.410156 112.652344 C 435.621094 112.652344 429.121094 111.089844 423.933594 107.851562 C 418.734375 104.601562 415.882812 99.023438 415.359375 91.359375 L 426.660156 91.359375 Z M 426.628906 91.355469 " fill-opacity="1" fill-rule="nonzero"/></g></svg>