<svg xmlns="http://www.w3.org/2000/svg" xmlns:xlink="http://www.w3.org/1999/xlink" width="632" zoomAndPan="magnify" viewBox="0 0 474 133.500001" height="178" preserveAspectRatio="xMidYMid meet" version="1.0"><defs><g/><clipPath id="4e3a61ef8f"><path d="M 0.882812 0 L 118.785156 0 L 118.785156 114.890625 L 0.882812 114.890625 Z M 0.882812 0 " clip-rule="nonzero"/></clipPath><clipPath id="280068abe6"><path d="M 415 31 L 473.113281 31 L 473.113281 103 L 415 103 Z M 415 31 " clip-rule="nonzero"/></clipPath></defs><g clip-path="url(#4e3a61ef8f)"><path fill="#ffffff" d="M 118.210938 -2.425781 L -252.988281 -0.589844 L -252.40625 116.363281 L 118.792969 114.527344 Z M 91.648438 61.265625 C 72.621094 61.363281 57.222656 76.917969 57.3125 95.9375 L 43.511719 96.007812 C 43.441406 83.101562 48.410156 70.945312 57.488281 61.78125 C 57.609375 61.660156 57.730469 61.550781 57.839844 61.429688 L -229.800781 62.855469 L -229.871094 49.054688 L 57.773438 47.628906 C 57.652344 47.519531 57.535156 47.398438 57.414062 47.285156 C 48.246094 38.207031 43.160156 26.101562 43.097656 13.195312 L 56.898438 13.128906 C 56.945312 22.34375 60.574219 30.992188 67.128906 37.480469 C 73.671875 43.964844 82.351562 47.511719 91.558594 47.464844 L 94.851562 47.449219 L 94.917969 61.25 Z M 91.648438 61.265625 " fill-opacity="1" fill-rule="nonzero"/></g><path fill="#ffffff" d="M 141.269531 7.8125 L 152.957031 7.8125 L 152.957031 100.53125 L 141.269531 100.53125 Z M 141.269531 7.8125 " fill-opacity="1" fill-rule="nonzero"/><path fill="#ffffff" d="M 170.164062 41.835938 C 176.011719 35.210938 184.1875 31.835938 194.449219 31.835938 C 204.710938 31.835938 212.886719 35.210938 218.734375 41.835938 C 224.574219 48.460938 227.5625 56.769531 227.5625 67.023438 C 227.5625 77.277344 224.574219 85.597656 218.734375 92.210938 C 212.886719 98.835938 204.710938 102.085938 194.449219 102.085938 C 184.1875 102.085938 176.011719 98.835938 170.164062 92.210938 C 164.316406 85.589844 161.335938 77.148438 161.335938 67.023438 C 161.335938 56.898438 164.324219 48.453125 170.164062 41.835938 Z M 209.636719 48.324219 C 205.613281 43.777344 200.550781 41.4375 194.441406 41.4375 C 188.332031 41.4375 183.277344 43.777344 179.117188 48.324219 C 175.09375 52.871094 173.015625 59.101562 173.015625 67.023438 C 173.015625 74.945312 175.09375 81.046875 179.117188 85.597656 C 183.269531 90.144531 188.339844 92.347656 194.441406 92.347656 C 200.542969 92.347656 205.605469 90.136719 209.636719 85.597656 C 213.789062 81.046875 215.875 74.820312 215.875 67.023438 C 215.875 59.226562 213.796875 52.871094 209.636719 48.324219 Z M 209.636719 48.324219 " fill-opacity="1" fill-rule="nonzero"/><path fill="#ffffff" d="M 285.113281 53.648438 C 282.90625 45.464844 276.675781 41.445312 266.675781 41.445312 C 259.539062 41.445312 254.078125 44.046875 250.1875 49.109375 C 246.425781 54.171875 244.476562 60.28125 244.476562 67.546875 C 244.476562 74.171875 246.425781 80.011719 250.1875 84.945312 C 253.953125 89.882812 259.277344 92.347656 265.898438 92.347656 C 277.199219 92.347656 283.824219 88.449219 285.898438 78.710938 L 297.199219 78.710938 C 293.695312 95.460938 283.433594 102.085938 265.644531 102.085938 C 255.648438 102.085938 247.597656 98.972656 241.75 92.609375 C 235.902344 86.246094 233.050781 77.808594 233.050781 67.546875 C 233.050781 57.285156 236.164062 48.847656 242.398438 42.097656 C 248.761719 35.210938 256.945312 31.835938 267.074219 31.835938 C 275.382812 31.835938 282.269531 33.785156 287.585938 37.808594 C 292.902344 41.835938 295.898438 47.03125 296.546875 53.648438 Z M 285.113281 53.648438 " fill-opacity="1" fill-rule="nonzero"/><path fill="#ffffff" d="M 360.710938 91.445312 C 360.710938 95.207031 361.097656 98.195312 361.75 100.53125 L 350.0625 100.53125 C 349.671875 98.195312 349.539062 93.257812 349.539062 85.597656 L 349.414062 85.597656 C 347.335938 96.371094 338.761719 102.085938 325.910156 102.085938 C 305.398438 102.085938 301.5 91.308594 301.5 82.734375 C 301.5 74.164062 305.914062 68.324219 312.664062 65.722656 C 316.171875 64.425781 319.414062 63.515625 322.664062 62.863281 C 325.910156 62.214844 329.285156 61.691406 332.921875 61.304688 C 336.6875 60.914062 339.160156 60.527344 340.324219 60.136719 C 347.984375 57.929688 349.023438 56.242188 349.023438 51.175781 C 349.023438 44.941406 343.3125 41.4375 333.3125 41.4375 C 326.5625 41.4375 322.011719 43.386719 320.0625 46.636719 C 318.375 49.75 318.25 50.660156 317.851562 53.125 L 306.167969 53.125 C 306.6875 48.839844 307.464844 45.726562 308.628906 43.515625 C 312.65625 35.726562 320.839844 31.828125 333.042969 31.828125 C 342.78125 31.828125 350.179688 34.6875 353.816406 37.929688 C 355.765625 39.617188 357.195312 41.566406 358.230469 44.03125 C 360.441406 48.707031 360.695312 51.691406 360.695312 55.457031 L 360.695312 91.429688 Z M 349.023438 58.585938 C 347.859375 64.433594 342.789062 66.636719 330.453125 69.101562 C 318.503906 71.308594 313.566406 74.164062 313.566406 82.476562 C 313.566406 88.710938 318.765625 92.988281 327.203125 92.988281 C 341.617188 92.988281 349.015625 86.367188 349.015625 69.355469 L 349.015625 58.578125 Z M 349.023438 58.585938 " fill-opacity="1" fill-rule="nonzero"/><path fill="#ffffff" d="M 372.339844 7.8125 L 384.023438 7.8125 L 384.023438 100.53125 L 372.339844 100.53125 Z M 372.339844 7.8125 " fill-opacity="1" fill-rule="nonzero"/><path fill="#ffffff" d="M 407.824219 21.320312 L 395.875 21.320312 L 395.875 7.8125 L 407.824219 7.8125 Z M 396.011719 33.398438 L 407.699219 33.398438 L 407.699219 100.53125 L 396.011719 100.53125 Z M 396.011719 33.398438 " fill-opacity="1" fill-rule="nonzero"/><g clip-path="url(#280068abe6)"><path fill="#ffffff" d="M 426.628906 80.792969 C 427.277344 88.71875 433.117188 92.609375 443.902344 92.609375 C 448.578125 92.609375 452.601562 91.832031 456.113281 90.269531 C 459.621094 88.710938 461.4375 86.117188 461.4375 82.347656 C 461.4375 78.84375 459.488281 76.246094 457.410156 74.6875 C 456.5 73.910156 454.945312 73.125 452.863281 72.476562 C 450.785156 71.824219 449.097656 71.304688 447.664062 71.050781 C 446.367188 70.660156 444.417969 70.273438 441.691406 69.75 C 435.589844 68.585938 433.253906 68.0625 428.191406 66.113281 C 421.4375 63.253906 418.0625 59.363281 417.539062 50.921875 C 417.539062 44.6875 420.003906 40.011719 425.074219 36.773438 C 430.136719 33.523438 435.984375 31.835938 442.609375 31.835938 C 451.046875 31.835938 457.410156 33.261719 461.832031 35.988281 C 466.378906 38.714844 469.105469 43.910156 470.144531 51.699219 L 459.367188 51.699219 C 457.417969 43.386719 452.09375 41.3125 443.394531 41.3125 C 435.730469 41.3125 429.242188 44.039062 429.242188 50.273438 C 429.242188 54.558594 431.96875 56.898438 436.515625 58.457031 L 440.800781 59.757812 L 446 60.796875 C 448.335938 61.183594 450.023438 61.574219 451.199219 61.832031 C 457.558594 63.261719 461.585938 64.695312 466.132812 67.417969 C 470.808594 70.144531 473.144531 74.820312 473.144531 80.921875 C 473.144531 85.984375 471.585938 90.144531 468.34375 93.519531 C 462.109375 100.144531 453.40625 102.09375 443.410156 102.09375 C 435.621094 102.09375 429.121094 100.53125 423.933594 97.289062 C 418.734375 94.042969 415.882812 88.464844 415.359375 80.800781 L 426.660156 80.800781 Z M 426.628906 80.792969 " fill-opacity="1" fill-rule="nonzero"/></g><g fill="#ffffff" fill-opacity="1"><g transform="translate(247.309034, 120.574679)"><g><path d="M 1.828125 0 L 1.828125 -12.5625 L 6.171875 -12.5625 C 7.460938 -12.5625 8.585938 -12.289062 9.546875 -11.75 C 10.515625 -11.21875 11.265625 -10.484375 11.796875 -9.546875 C 12.335938 -8.609375 12.609375 -7.519531 12.609375 -6.28125 C 12.609375 -5.050781 12.335938 -3.960938 11.796875 -3.015625 C 11.265625 -2.066406 10.515625 -1.328125 9.546875 -0.796875 C 8.585938 -0.265625 7.460938 0 6.171875 0 Z M 3.40625 -1.5 L 6.171875 -1.5 C 7.128906 -1.5 7.96875 -1.695312 8.6875 -2.09375 C 9.414062 -2.5 9.984375 -3.0625 10.390625 -3.78125 C 10.796875 -4.5 11 -5.332031 11 -6.28125 C 11 -7.238281 10.789062 -8.070312 10.375 -8.78125 C 9.96875 -9.488281 9.394531 -10.039062 8.65625 -10.4375 C 7.925781 -10.84375 7.070312 -11.046875 6.09375 -11.046875 L 3.40625 -11.046875 Z M 3.40625 -1.5 "/></g></g></g><g fill="#ffffff" fill-opacity="1"><g transform="translate(260.812418, 120.574679)"><g><path d="M 5.703125 0.234375 C 4.773438 0.234375 3.953125 0.03125 3.234375 -0.375 C 2.515625 -0.789062 1.953125 -1.367188 1.546875 -2.109375 C 1.140625 -2.859375 0.9375 -3.707031 0.9375 -4.65625 C 0.9375 -5.613281 1.140625 -6.460938 1.546875 -7.203125 C 1.953125 -7.941406 2.515625 -8.515625 3.234375 -8.921875 C 3.960938 -9.335938 4.789062 -9.546875 5.71875 -9.546875 C 6.707031 -9.546875 7.566406 -9.3125 8.296875 -8.84375 C 9.035156 -8.375 9.597656 -7.726562 9.984375 -6.90625 C 10.367188 -6.09375 10.546875 -5.140625 10.515625 -4.046875 L 2.453125 -4.046875 C 2.578125 -3.179688 2.929688 -2.488281 3.515625 -1.96875 C 4.097656 -1.445312 4.832031 -1.1875 5.71875 -1.1875 C 6.332031 -1.1875 6.890625 -1.316406 7.390625 -1.578125 C 7.890625 -1.835938 8.285156 -2.210938 8.578125 -2.703125 L 10.28125 -2.703125 C 9.90625 -1.796875 9.3125 -1.078125 8.5 -0.546875 C 7.6875 -0.0234375 6.753906 0.234375 5.703125 0.234375 Z M 2.46875 -5.375 L 9 -5.375 C 8.84375 -6.226562 8.46875 -6.898438 7.875 -7.390625 C 7.289062 -7.878906 6.570312 -8.125 5.71875 -8.125 C 4.863281 -8.125 4.140625 -7.875 3.546875 -7.375 C 2.960938 -6.875 2.601562 -6.207031 2.46875 -5.375 Z M 2.46875 -5.375 "/></g></g></g><g fill="#ffffff" fill-opacity="1"><g transform="translate(272.217673, 120.574679)"><g><path d="M 5.046875 0.234375 C 3.816406 0.234375 2.832031 -0.0507812 2.09375 -0.625 C 1.363281 -1.207031 0.988281 -1.972656 0.96875 -2.921875 L 2.453125 -2.921875 C 2.484375 -2.359375 2.722656 -1.914062 3.171875 -1.59375 C 3.628906 -1.269531 4.257812 -1.109375 5.0625 -1.109375 C 5.757812 -1.109375 6.3125 -1.226562 6.71875 -1.46875 C 7.132812 -1.71875 7.34375 -2.050781 7.34375 -2.46875 C 7.34375 -2.894531 7.128906 -3.238281 6.703125 -3.5 C 6.273438 -3.757812 5.609375 -3.96875 4.703125 -4.125 C 3.503906 -4.332031 2.613281 -4.660156 2.03125 -5.109375 C 1.457031 -5.566406 1.171875 -6.160156 1.171875 -6.890625 C 1.171875 -7.722656 1.488281 -8.375 2.125 -8.84375 C 2.757812 -9.3125 3.640625 -9.546875 4.765625 -9.546875 C 5.921875 -9.546875 6.84375 -9.289062 7.53125 -8.78125 C 8.21875 -8.269531 8.585938 -7.554688 8.640625 -6.640625 L 7.15625 -6.640625 C 7.101562 -7.148438 6.867188 -7.539062 6.453125 -7.8125 C 6.046875 -8.082031 5.492188 -8.21875 4.796875 -8.21875 C 4.117188 -8.21875 3.59375 -8.097656 3.21875 -7.859375 C 2.84375 -7.628906 2.65625 -7.304688 2.65625 -6.890625 C 2.65625 -6.492188 2.84375 -6.179688 3.21875 -5.953125 C 3.601562 -5.734375 4.28125 -5.53125 5.25 -5.34375 C 7.632812 -4.875 8.828125 -3.90625 8.828125 -2.4375 C 8.828125 -1.632812 8.484375 -0.988281 7.796875 -0.5 C 7.109375 -0.0078125 6.191406 0.234375 5.046875 0.234375 Z M 5.046875 0.234375 "/></g></g></g><g fill="#ffffff" fill-opacity="1"><g transform="translate(281.757911, 120.574679)"><g><path d="M 5.6875 0 C 4.65625 0 3.851562 -0.289062 3.28125 -0.875 C 2.71875 -1.46875 2.4375 -2.296875 2.4375 -3.359375 L 2.4375 -7.921875 L 0.484375 -7.921875 L 0.484375 -9.3125 L 1.421875 -9.3125 C 1.847656 -9.3125 2.144531 -9.378906 2.3125 -9.515625 C 2.476562 -9.660156 2.585938 -9.945312 2.640625 -10.375 L 2.78125 -11.625 L 3.953125 -11.625 L 3.953125 -9.3125 L 6.953125 -9.3125 L 6.953125 -7.921875 L 3.953125 -7.921875 L 3.953125 -3.421875 C 3.953125 -2.109375 4.554688 -1.453125 5.765625 -1.453125 L 7.078125 -1.453125 L 7.078125 0 Z M 5.6875 0 "/></g></g></g><g fill="#ffffff" fill-opacity="1"><g transform="translate(289.720071, 120.574679)"><g><path d="M 1.671875 0 L 1.671875 -9.3125 L 3.171875 -9.3125 L 3.171875 0 Z M 1.203125 -12.015625 C 1.203125 -12.359375 1.3125 -12.640625 1.53125 -12.859375 C 1.75 -13.085938 2.046875 -13.203125 2.421875 -13.203125 C 2.796875 -13.203125 3.085938 -13.085938 3.296875 -12.859375 C 3.515625 -12.640625 3.625 -12.359375 3.625 -12.015625 C 3.625 -11.679688 3.515625 -11.40625 3.296875 -11.1875 C 3.085938 -10.96875 2.796875 -10.859375 2.421875 -10.859375 C 2.046875 -10.859375 1.75 -10.96875 1.53125 -11.1875 C 1.3125 -11.40625 1.203125 -11.679688 1.203125 -12.015625 Z M 1.203125 -12.015625 "/></g></g></g><g fill="#ffffff" fill-opacity="1"><g transform="translate(294.561922, 120.574679)"><g><path d="M 1.671875 0 L 1.671875 -9.3125 L 2.90625 -9.3125 L 3.0625 -7.953125 C 3.46875 -8.515625 3.960938 -8.921875 4.546875 -9.171875 C 5.128906 -9.421875 5.726562 -9.546875 6.34375 -9.546875 C 7.59375 -9.546875 8.5625 -9.148438 9.25 -8.359375 C 9.945312 -7.566406 10.296875 -6.507812 10.296875 -5.1875 L 10.296875 0 L 8.796875 0 L 8.796875 -5.046875 C 8.796875 -5.984375 8.554688 -6.726562 8.078125 -7.28125 C 7.609375 -7.832031 6.96875 -8.109375 6.15625 -8.109375 C 5.582031 -8.109375 5.070312 -7.96875 4.625 -7.6875 C 4.175781 -7.40625 3.820312 -7.003906 3.5625 -6.484375 C 3.300781 -5.972656 3.171875 -5.378906 3.171875 -4.703125 L 3.171875 0 Z M 1.671875 0 "/></g></g></g><g fill="#ffffff" fill-opacity="1"><g transform="translate(306.343765, 120.574679)"><g><path d="M 4.71875 0.140625 C 3.59375 0.140625 2.710938 -0.109375 2.078125 -0.609375 C 1.441406 -1.117188 1.125 -1.8125 1.125 -2.6875 C 1.125 -3.539062 1.414062 -4.21875 2 -4.71875 C 2.59375 -5.21875 3.375 -5.46875 4.34375 -5.46875 L 8.140625 -5.46875 L 8.140625 -5.8125 C 8.140625 -6.539062 7.910156 -7.109375 7.453125 -7.515625 C 7.003906 -7.929688 6.382812 -8.140625 5.59375 -8.140625 C 5 -8.140625 4.476562 -8.003906 4.03125 -7.734375 C 3.59375 -7.472656 3.296875 -7.113281 3.140625 -6.65625 L 1.609375 -6.65625 C 1.816406 -7.550781 2.273438 -8.253906 2.984375 -8.765625 C 3.691406 -9.285156 4.554688 -9.546875 5.578125 -9.546875 C 6.390625 -9.546875 7.097656 -9.390625 7.703125 -9.078125 C 8.316406 -8.773438 8.796875 -8.351562 9.140625 -7.8125 C 9.484375 -7.269531 9.65625 -6.640625 9.65625 -5.921875 L 9.65625 0 L 8.40625 0 L 8.25 -1.296875 C 7.40625 -0.335938 6.226562 0.140625 4.71875 0.140625 Z M 2.640625 -2.703125 C 2.640625 -2.253906 2.828125 -1.890625 3.203125 -1.609375 C 3.585938 -1.335938 4.109375 -1.203125 4.765625 -1.203125 C 5.410156 -1.203125 5.984375 -1.328125 6.484375 -1.578125 C 6.992188 -1.828125 7.394531 -2.171875 7.6875 -2.609375 C 7.988281 -3.054688 8.144531 -3.566406 8.15625 -4.140625 L 4.390625 -4.140625 C 3.878906 -4.140625 3.457031 -4.007812 3.125 -3.75 C 2.800781 -3.5 2.640625 -3.148438 2.640625 -2.703125 Z M 2.640625 -2.703125 "/></g></g></g><g fill="#ffffff" fill-opacity="1"><g transform="translate(317.175165, 120.574679)"><g><path d="M 5.6875 0 C 4.65625 0 3.851562 -0.289062 3.28125 -0.875 C 2.71875 -1.46875 2.4375 -2.296875 2.4375 -3.359375 L 2.4375 -7.921875 L 0.484375 -7.921875 L 0.484375 -9.3125 L 1.421875 -9.3125 C 1.847656 -9.3125 2.144531 -9.378906 2.3125 -9.515625 C 2.476562 -9.660156 2.585938 -9.945312 2.640625 -10.375 L 2.78125 -11.625 L 3.953125 -11.625 L 3.953125 -9.3125 L 6.953125 -9.3125 L 6.953125 -7.921875 L 3.953125 -7.921875 L 3.953125 -3.421875 C 3.953125 -2.109375 4.554688 -1.453125 5.765625 -1.453125 L 7.078125 -1.453125 L 7.078125 0 Z M 5.6875 0 "/></g></g></g><g fill="#ffffff" fill-opacity="1"><g transform="translate(325.137325, 120.574679)"><g><path d="M 1.671875 0 L 1.671875 -9.3125 L 3.171875 -9.3125 L 3.171875 0 Z M 1.203125 -12.015625 C 1.203125 -12.359375 1.3125 -12.640625 1.53125 -12.859375 C 1.75 -13.085938 2.046875 -13.203125 2.421875 -13.203125 C 2.796875 -13.203125 3.085938 -13.085938 3.296875 -12.859375 C 3.515625 -12.640625 3.625 -12.359375 3.625 -12.015625 C 3.625 -11.679688 3.515625 -11.40625 3.296875 -11.1875 C 3.085938 -10.96875 2.796875 -10.859375 2.421875 -10.859375 C 2.046875 -10.859375 1.75 -10.96875 1.53125 -11.1875 C 1.3125 -11.40625 1.203125 -11.679688 1.203125 -12.015625 Z M 1.203125 -12.015625 "/></g></g></g><g fill="#ffffff" fill-opacity="1"><g transform="translate(329.979176, 120.574679)"><g><path d="M 5.859375 0.234375 C 4.890625 0.234375 4.035156 0.0234375 3.296875 -0.390625 C 2.554688 -0.804688 1.976562 -1.382812 1.5625 -2.125 C 1.144531 -2.875 0.9375 -3.71875 0.9375 -4.65625 C 0.9375 -5.613281 1.144531 -6.457031 1.5625 -7.1875 C 1.976562 -7.914062 2.554688 -8.488281 3.296875 -8.90625 C 4.035156 -9.332031 4.890625 -9.546875 5.859375 -9.546875 C 6.828125 -9.546875 7.679688 -9.332031 8.421875 -8.90625 C 9.171875 -8.488281 9.753906 -7.914062 10.171875 -7.1875 C 10.585938 -6.457031 10.796875 -5.613281 10.796875 -4.65625 C 10.796875 -3.71875 10.585938 -2.875 10.171875 -2.125 C 9.753906 -1.382812 9.171875 -0.804688 8.421875 -0.390625 C 7.679688 0.0234375 6.828125 0.234375 5.859375 0.234375 Z M 2.4375 -4.65625 C 2.4375 -3.976562 2.582031 -3.378906 2.875 -2.859375 C 3.164062 -2.335938 3.566406 -1.929688 4.078125 -1.640625 C 4.597656 -1.359375 5.191406 -1.21875 5.859375 -1.21875 C 6.535156 -1.21875 7.128906 -1.359375 7.640625 -1.640625 C 8.148438 -1.929688 8.550781 -2.335938 8.84375 -2.859375 C 9.144531 -3.378906 9.296875 -3.976562 9.296875 -4.65625 C 9.296875 -5.34375 9.144531 -5.941406 8.84375 -6.453125 C 8.550781 -6.972656 8.148438 -7.378906 7.640625 -7.671875 C 7.128906 -7.960938 6.535156 -8.109375 5.859375 -8.109375 C 5.191406 -8.109375 4.597656 -7.960938 4.078125 -7.671875 C 3.566406 -7.378906 3.164062 -6.972656 2.875 -6.453125 C 2.582031 -5.941406 2.4375 -5.34375 2.4375 -4.65625 Z M 2.4375 -4.65625 "/></g></g></g><g fill="#ffffff" fill-opacity="1"><g transform="translate(341.707215, 120.574679)"><g><path d="M 1.671875 0 L 1.671875 -9.3125 L 2.90625 -9.3125 L 3.0625 -7.953125 C 3.46875 -8.515625 3.960938 -8.921875 4.546875 -9.171875 C 5.128906 -9.421875 5.726562 -9.546875 6.34375 -9.546875 C 7.59375 -9.546875 8.5625 -9.148438 9.25 -8.359375 C 9.945312 -7.566406 10.296875 -6.507812 10.296875 -5.1875 L 10.296875 0 L 8.796875 0 L 8.796875 -5.046875 C 8.796875 -5.984375 8.554688 -6.726562 8.078125 -7.28125 C 7.609375 -7.832031 6.96875 -8.109375 6.15625 -8.109375 C 5.582031 -8.109375 5.070312 -7.96875 4.625 -7.6875 C 4.175781 -7.40625 3.820312 -7.003906 3.5625 -6.484375 C 3.300781 -5.972656 3.171875 -5.378906 3.171875 -4.703125 L 3.171875 0 Z M 1.671875 0 "/></g></g></g><g fill="#ffffff" fill-opacity="1"><g transform="translate(353.489058, 120.574679)"><g/></g></g><g fill="#ffffff" fill-opacity="1"><g transform="translate(357.936387, 120.574679)"><g><path d="M 1.828125 0 L 1.828125 -12.5625 L 3.40625 -12.5625 L 3.40625 0 Z M 1.828125 0 "/></g></g></g><g fill="#ffffff" fill-opacity="1"><g transform="translate(363.17276, 120.574679)"><g><path d="M 1.671875 0 L 1.671875 -9.3125 L 2.90625 -9.3125 L 3.0625 -7.953125 C 3.46875 -8.515625 3.960938 -8.921875 4.546875 -9.171875 C 5.128906 -9.421875 5.726562 -9.546875 6.34375 -9.546875 C 7.59375 -9.546875 8.5625 -9.148438 9.25 -8.359375 C 9.945312 -7.566406 10.296875 -6.507812 10.296875 -5.1875 L 10.296875 0 L 8.796875 0 L 8.796875 -5.046875 C 8.796875 -5.984375 8.554688 -6.726562 8.078125 -7.28125 C 7.609375 -7.832031 6.96875 -8.109375 6.15625 -8.109375 C 5.582031 -8.109375 5.070312 -7.96875 4.625 -7.6875 C 4.175781 -7.40625 3.820312 -7.003906 3.5625 -6.484375 C 3.300781 -5.972656 3.171875 -5.378906 3.171875 -4.703125 L 3.171875 0 Z M 1.671875 0 "/></g></g></g><g fill="#ffffff" fill-opacity="1"><g transform="translate(374.954602, 120.574679)"><g><path d="M 5.046875 0.234375 C 3.816406 0.234375 2.832031 -0.0507812 2.09375 -0.625 C 1.363281 -1.207031 0.988281 -1.972656 0.96875 -2.921875 L 2.453125 -2.921875 C 2.484375 -2.359375 2.722656 -1.914062 3.171875 -1.59375 C 3.628906 -1.269531 4.257812 -1.109375 5.0625 -1.109375 C 5.757812 -1.109375 6.3125 -1.226562 6.71875 -1.46875 C 7.132812 -1.71875 7.34375 -2.050781 7.34375 -2.46875 C 7.34375 -2.894531 7.128906 -3.238281 6.703125 -3.5 C 6.273438 -3.757812 5.609375 -3.96875 4.703125 -4.125 C 3.503906 -4.332031 2.613281 -4.660156 2.03125 -5.109375 C 1.457031 -5.566406 1.171875 -6.160156 1.171875 -6.890625 C 1.171875 -7.722656 1.488281 -8.375 2.125 -8.84375 C 2.757812 -9.3125 3.640625 -9.546875 4.765625 -9.546875 C 5.921875 -9.546875 6.84375 -9.289062 7.53125 -8.78125 C 8.21875 -8.269531 8.585938 -7.554688 8.640625 -6.640625 L 7.15625 -6.640625 C 7.101562 -7.148438 6.867188 -7.539062 6.453125 -7.8125 C 6.046875 -8.082031 5.492188 -8.21875 4.796875 -8.21875 C 4.117188 -8.21875 3.59375 -8.097656 3.21875 -7.859375 C 2.84375 -7.628906 2.65625 -7.304688 2.65625 -6.890625 C 2.65625 -6.492188 2.84375 -6.179688 3.21875 -5.953125 C 3.601562 -5.734375 4.28125 -5.53125 5.25 -5.34375 C 7.632812 -4.875 8.828125 -3.90625 8.828125 -2.4375 C 8.828125 -1.632812 8.484375 -0.988281 7.796875 -0.5 C 7.109375 -0.0078125 6.191406 0.234375 5.046875 0.234375 Z M 5.046875 0.234375 "/></g></g></g><g fill="#ffffff" fill-opacity="1"><g transform="translate(384.745899, 120.574679)"><g><path d="M 1.671875 0 L 1.671875 -9.3125 L 3.171875 -9.3125 L 3.171875 0 Z M 1.203125 -12.015625 C 1.203125 -12.359375 1.3125 -12.640625 1.53125 -12.859375 C 1.75 -13.085938 2.046875 -13.203125 2.421875 -13.203125 C 2.796875 -13.203125 3.085938 -13.085938 3.296875 -12.859375 C 3.515625 -12.640625 3.625 -12.359375 3.625 -12.015625 C 3.625 -11.679688 3.515625 -11.40625 3.296875 -11.1875 C 3.085938 -10.96875 2.796875 -10.859375 2.421875 -10.859375 C 2.046875 -10.859375 1.75 -10.96875 1.53125 -11.1875 C 1.3125 -11.40625 1.203125 -11.679688 1.203125 -12.015625 Z M 1.203125 -12.015625 "/></g></g></g><g fill="#ffffff" fill-opacity="1"><g transform="translate(389.58775, 120.574679)"><g><path d="M 5.828125 3.828125 C 4.640625 3.828125 3.648438 3.535156 2.859375 2.953125 C 2.078125 2.367188 1.601562 1.582031 1.4375 0.59375 L 2.953125 0.59375 C 3.097656 1.15625 3.421875 1.597656 3.921875 1.921875 C 4.429688 2.253906 5.066406 2.421875 5.828125 2.421875 C 6.804688 2.421875 7.566406 2.15625 8.109375 1.625 C 8.648438 1.101562 8.921875 0.363281 8.921875 -0.59375 L 8.921875 -1.46875 C 8.515625 -1.039062 8.019531 -0.703125 7.4375 -0.453125 C 6.863281 -0.210938 6.242188 -0.09375 5.578125 -0.09375 C 4.691406 -0.09375 3.898438 -0.296875 3.203125 -0.703125 C 2.503906 -1.117188 1.953125 -1.679688 1.546875 -2.390625 C 1.140625 -3.109375 0.9375 -3.921875 0.9375 -4.828125 C 0.9375 -5.734375 1.140625 -6.539062 1.546875 -7.25 C 1.953125 -7.957031 2.503906 -8.515625 3.203125 -8.921875 C 3.898438 -9.335938 4.691406 -9.546875 5.578125 -9.546875 C 6.285156 -9.546875 6.929688 -9.410156 7.515625 -9.140625 C 8.109375 -8.878906 8.609375 -8.515625 9.015625 -8.046875 L 9.1875 -9.3125 L 10.421875 -9.3125 L 10.421875 -0.53125 C 10.421875 0.332031 10.234375 1.09375 9.859375 1.75 C 9.484375 2.414062 8.953125 2.925781 8.265625 3.28125 C 7.578125 3.644531 6.765625 3.828125 5.828125 3.828125 Z M 2.4375 -4.828125 C 2.4375 -4.191406 2.578125 -3.625 2.859375 -3.125 C 3.140625 -2.632812 3.53125 -2.25 4.03125 -1.96875 C 4.539062 -1.695312 5.109375 -1.5625 5.734375 -1.5625 C 6.378906 -1.5625 6.953125 -1.695312 7.453125 -1.96875 C 7.953125 -2.25 8.34375 -2.632812 8.625 -3.125 C 8.90625 -3.625 9.046875 -4.191406 9.046875 -4.828125 C 9.046875 -5.460938 8.90625 -6.023438 8.625 -6.515625 C 8.34375 -7.003906 7.953125 -7.390625 7.453125 -7.671875 C 6.953125 -7.953125 6.378906 -8.09375 5.734375 -8.09375 C 5.109375 -8.09375 4.539062 -7.953125 4.03125 -7.671875 C 3.53125 -7.390625 3.140625 -7.003906 2.859375 -6.515625 C 2.578125 -6.023438 2.4375 -5.460938 2.4375 -4.828125 Z M 2.4375 -4.828125 "/></g></g></g><g fill="#ffffff" fill-opacity="1"><g transform="translate(401.674443, 120.574679)"><g><path d="M 1.671875 0 L 1.671875 -13.28125 L 3.171875 -13.28125 L 3.171875 -8.09375 C 3.578125 -8.59375 4.0625 -8.957031 4.625 -9.1875 C 5.1875 -9.425781 5.769531 -9.546875 6.375 -9.546875 C 7.601562 -9.546875 8.5625 -9.160156 9.25 -8.390625 C 9.945312 -7.617188 10.296875 -6.566406 10.296875 -5.234375 L 10.296875 0 L 8.796875 0 L 8.796875 -5.09375 C 8.796875 -6.03125 8.5625 -6.765625 8.09375 -7.296875 C 7.625 -7.835938 6.984375 -8.109375 6.171875 -8.109375 C 5.296875 -8.109375 4.578125 -7.804688 4.015625 -7.203125 C 3.453125 -6.597656 3.171875 -5.78125 3.171875 -4.75 L 3.171875 0 Z M 1.671875 0 "/></g></g></g><g fill="#ffffff" fill-opacity="1"><g transform="translate(413.169358, 120.574679)"><g><path d="M 5.6875 0 C 4.65625 0 3.851562 -0.289062 3.28125 -0.875 C 2.71875 -1.46875 2.4375 -2.296875 2.4375 -3.359375 L 2.4375 -7.921875 L 0.484375 -7.921875 L 0.484375 -9.3125 L 1.421875 -9.3125 C 1.847656 -9.3125 2.144531 -9.378906 2.3125 -9.515625 C 2.476562 -9.660156 2.585938 -9.945312 2.640625 -10.375 L 2.78125 -11.625 L 3.953125 -11.625 L 3.953125 -9.3125 L 6.953125 -9.3125 L 6.953125 -7.921875 L 3.953125 -7.921875 L 3.953125 -3.421875 C 3.953125 -2.109375 4.554688 -1.453125 5.765625 -1.453125 L 7.078125 -1.453125 L 7.078125 0 Z M 5.6875 0 "/></g></g></g><g fill="#ffffff" fill-opacity="1"><g transform="translate(420.952186, 120.574679)"><g><path d="M 5.046875 0.234375 C 3.816406 0.234375 2.832031 -0.0507812 2.09375 -0.625 C 1.363281 -1.207031 0.988281 -1.972656 0.96875 -2.921875 L 2.453125 -2.921875 C 2.484375 -2.359375 2.722656 -1.914062 3.171875 -1.59375 C 3.628906 -1.269531 4.257812 -1.109375 5.0625 -1.109375 C 5.757812 -1.109375 6.3125 -1.226562 6.71875 -1.46875 C 7.132812 -1.71875 7.34375 -2.050781 7.34375 -2.46875 C 7.34375 -2.894531 7.128906 -3.238281 6.703125 -3.5 C 6.273438 -3.757812 5.609375 -3.96875 4.703125 -4.125 C 3.503906 -4.332031 2.613281 -4.660156 2.03125 -5.109375 C 1.457031 -5.566406 1.171875 -6.160156 1.171875 -6.890625 C 1.171875 -7.722656 1.488281 -8.375 2.125 -8.84375 C 2.757812 -9.3125 3.640625 -9.546875 4.765625 -9.546875 C 5.921875 -9.546875 6.84375 -9.289062 7.53125 -8.78125 C 8.21875 -8.269531 8.585938 -7.554688 8.640625 -6.640625 L 7.15625 -6.640625 C 7.101562 -7.148438 6.867188 -7.539062 6.453125 -7.8125 C 6.046875 -8.082031 5.492188 -8.21875 4.796875 -8.21875 C 4.117188 -8.21875 3.59375 -8.097656 3.21875 -7.859375 C 2.84375 -7.628906 2.65625 -7.304688 2.65625 -6.890625 C 2.65625 -6.492188 2.84375 -6.179688 3.21875 -5.953125 C 3.601562 -5.734375 4.28125 -5.53125 5.25 -5.34375 C 7.632812 -4.875 8.828125 -3.90625 8.828125 -2.4375 C 8.828125 -1.632812 8.484375 -0.988281 7.796875 -0.5 C 7.109375 -0.0078125 6.191406 0.234375 5.046875 0.234375 Z M 5.046875 0.234375 "/></g></g></g><g fill="#ffffff" fill-opacity="1"><g transform="translate(430.34896, 120.574679)"><g/></g></g><g fill="#ffffff" fill-opacity="1"><g transform="translate(434.796289, 120.574679)"><g><path d="M 10.0625 0 L 10.0625 -5.65625 L 3.40625 -5.65625 L 3.40625 0 L 1.828125 0 L 1.828125 -12.5625 L 3.40625 -12.5625 L 3.40625 -7.15625 L 10.0625 -7.15625 L 10.0625 -12.5625 L 11.640625 -12.5625 L 11.640625 0 Z M 10.0625 0 "/></g></g></g><g fill="#ffffff" fill-opacity="1"><g transform="translate(448.263815, 120.574679)"><g><path d="M 5.375 0.234375 C 4.15625 0.234375 3.203125 -0.160156 2.515625 -0.953125 C 1.828125 -1.742188 1.484375 -2.800781 1.484375 -4.125 L 1.484375 -9.3125 L 3 -9.3125 L 3 -4.265625 C 3 -3.335938 3.226562 -2.597656 3.6875 -2.046875 C 4.144531 -1.492188 4.773438 -1.21875 5.578125 -1.21875 C 6.453125 -1.21875 7.160156 -1.523438 7.703125 -2.140625 C 8.242188 -2.765625 8.515625 -3.585938 8.515625 -4.609375 L 8.515625 -9.3125 L 10.03125 -9.3125 L 10.03125 0 L 8.796875 0 L 8.625 -1.359375 C 8.21875 -0.804688 7.726562 -0.398438 7.15625 -0.140625 C 6.59375 0.109375 6 0.234375 5.375 0.234375 Z M 5.375 0.234375 "/></g></g></g><g fill="#ffffff" fill-opacity="1"><g transform="translate(459.955986, 120.574679)"><g><path d="M 6.75 0.234375 C 5.976562 0.234375 5.28125 0.0859375 4.65625 -0.203125 C 4.03125 -0.503906 3.503906 -0.914062 3.078125 -1.4375 L 2.90625 0 L 1.671875 0 L 1.671875 -13.28125 L 3.171875 -13.28125 L 3.171875 -7.984375 C 3.585938 -8.472656 4.101562 -8.851562 4.71875 -9.125 C 5.34375 -9.40625 6.019531 -9.546875 6.75 -9.546875 C 7.664062 -9.546875 8.476562 -9.332031 9.1875 -8.90625 C 9.90625 -8.476562 10.46875 -7.898438 10.875 -7.171875 C 11.28125 -6.441406 11.484375 -5.601562 11.484375 -4.65625 C 11.484375 -3.71875 11.28125 -2.878906 10.875 -2.140625 C 10.46875 -1.410156 9.90625 -0.832031 9.1875 -0.40625 C 8.476562 0.0195312 7.664062 0.234375 6.75 0.234375 Z M 3.125 -4.65625 C 3.125 -3.988281 3.269531 -3.394531 3.5625 -2.875 C 3.851562 -2.351562 4.253906 -1.945312 4.765625 -1.65625 C 5.285156 -1.363281 5.878906 -1.21875 6.546875 -1.21875 C 7.222656 -1.21875 7.816406 -1.363281 8.328125 -1.65625 C 8.847656 -1.945312 9.25 -2.351562 9.53125 -2.875 C 9.820312 -3.394531 9.96875 -3.988281 9.96875 -4.65625 C 9.96875 -5.332031 9.820312 -5.929688 9.53125 -6.453125 C 9.25 -6.972656 8.847656 -7.378906 8.328125 -7.671875 C 7.816406 -7.960938 7.222656 -8.109375 6.546875 -8.109375 C 5.878906 -8.109375 5.285156 -7.960938 4.765625 -7.671875 C 4.253906 -7.378906 3.851562 -6.972656 3.5625 -6.453125 C 3.269531 -5.929688 3.125 -5.332031 3.125 -4.65625 Z M 3.125 -4.65625 "/></g></g></g></svg>