<?xml version="1.0" encoding="UTF-8"?>
<svg id="Layer_2" data-name="Layer 2" xmlns="http://www.w3.org/2000/svg" xmlns:xlink="http://www.w3.org/1999/xlink" viewBox="0 0 632.36 157.88">
  <defs>
    <style>
      .cls-1 {
        fill: none;
      }

      .cls-2 {
        fill: #fff;
      }

      .cls-3 {
        clip-path: url(#clippath);
      }
    </style>
    <clipPath id="clippath">
      <rect class="cls-1" width="157.88" height="157.88"/>
    </clipPath>
  </defs>
  <g id="Layer_1-2" data-name="Layer 1">
    <g class="cls-3">
      <path class="cls-2" d="M157.11.78l-497.07,2.46.78,156.61,497.07-2.46-.78-156.61ZM121.54,86.07c-25.48.13-46.1,20.96-45.98,46.43l-18.48.09c-.09-17.28,6.56-33.56,18.72-45.83.16-.16.32-.31.47-.47l-385.18,1.91-.09-18.48,385.18-1.91c-.16-.15-.32-.31-.48-.46-12.28-12.16-19.09-28.37-19.17-45.65l18.48-.09c.06,12.34,4.92,23.92,13.7,32.61,8.76,8.68,20.38,13.43,32.71,13.37l4.41-.02.09,18.48-4.38.02h0Z"/>
    </g>
    <g>
      <path class="cls-2" d="M187.99,14.49h15.65v124.16h-15.65V14.49Z"/>
      <path class="cls-2" d="M226.68,60.05c7.83-8.87,18.78-13.39,32.52-13.39s24.69,4.52,32.52,13.39c7.82,8.87,11.82,20,11.82,33.73s-4,24.87-11.82,33.73c-7.83,8.87-18.78,13.22-32.52,13.22s-24.69-4.35-32.52-13.22-11.82-20.17-11.82-33.73,4-24.87,11.82-33.73ZM279.54,68.74c-5.39-6.09-12.17-9.22-20.35-9.22s-14.95,3.13-20.52,9.22c-5.39,6.09-8.17,14.43-8.17,25.04s2.78,18.78,8.17,24.87c5.56,6.09,12.35,9.04,20.52,9.04s14.95-2.96,20.35-9.04c5.56-6.09,8.35-14.43,8.35-24.87s-2.78-18.95-8.35-25.04Z"/>
      <path class="cls-2" d="M380.61,75.87c-2.96-10.96-11.3-16.34-24.69-16.34-9.56,0-16.87,3.48-22.08,10.26-5.04,6.78-7.65,14.96-7.65,24.69,0,8.87,2.61,16.69,7.65,23.3,5.04,6.61,12.17,9.91,21.04,9.91,15.13,0,24-5.22,26.78-18.26h15.13c-4.69,22.43-18.43,31.3-42.25,31.3-13.39,0-24.17-4.17-32-12.69-7.83-8.52-11.65-19.82-11.65-33.56s4.17-25.04,12.52-34.08c8.52-9.22,19.48-13.74,33.04-13.74,11.13,0,20.35,2.61,27.47,8s11.13,12.35,12,21.21h-15.3Z"/>
      <path class="cls-2" d="M481.84,126.48c0,5.04.52,9.04,1.39,12.17h-15.65c-.52-3.13-.7-9.74-.7-20h-.17c-2.78,14.43-14.26,22.08-31.47,22.08-27.47,0-32.69-14.43-32.69-25.91s5.91-19.3,14.95-22.78c4.7-1.74,9.04-2.96,13.39-3.83s8.87-1.57,13.74-2.09c5.04-.52,8.35-1.04,9.91-1.56,10.26-2.96,11.65-5.22,11.65-12,0-8.35-7.65-13.04-21.04-13.04-9.04,0-15.13,2.61-17.74,6.96-2.26,4.17-2.43,5.39-2.96,8.69h-15.65c.7-5.74,1.74-9.91,3.3-12.87,5.39-10.43,16.35-15.65,32.69-15.65,13.04,0,22.95,3.83,27.82,8.17,2.61,2.26,4.52,4.87,5.91,8.17,2.96,6.26,3.3,10.26,3.3,15.3v48.17ZM466.19,82.48c-1.56,7.83-8.35,10.78-24.87,14.08-16,2.96-22.61,6.78-22.61,17.91,0,8.35,6.96,14.08,18.26,14.08,19.3,0,29.21-8.87,29.21-31.65v-14.43Z"/>
      <path class="cls-2" d="M497.41,14.49h15.65v124.16h-15.65V14.49Z"/>
      <path class="cls-2" d="M544.93,32.58h-16V14.49h16v18.08ZM529.11,48.75h15.65v89.9h-15.65V48.75Z"/>
      <path class="cls-2" d="M570.11,112.22c.87,10.61,8.69,15.82,23.13,15.82,6.26,0,11.65-1.04,16.35-3.13,4.7-2.09,7.13-5.56,7.13-10.61,0-4.69-2.61-8.17-5.39-10.26-1.22-1.04-3.3-2.09-6.09-2.96-2.78-.87-5.04-1.57-6.96-1.91-1.74-.52-4.35-1.04-8-1.74-8.17-1.56-11.3-2.26-18.08-4.87-9.04-3.83-13.56-9.04-14.26-20.34,0-8.35,3.3-14.61,10.09-18.95,6.78-4.35,14.61-6.61,23.48-6.61,11.3,0,19.82,1.91,25.74,5.56,6.09,3.65,9.74,10.61,11.13,21.04h-14.43c-2.61-11.13-9.74-13.91-21.39-13.91-10.26,0-18.95,3.65-18.95,12,0,5.74,3.65,8.87,9.74,10.96l5.74,1.74,6.96,1.39c3.13.52,5.39,1.04,6.96,1.39,8.52,1.91,13.91,3.83,20,7.48,6.26,3.65,9.39,9.91,9.39,18.08,0,6.78-2.09,12.35-6.43,16.87-8.35,8.87-20,11.48-33.39,11.48-10.43,0-19.13-2.09-26.08-6.43-6.96-4.35-10.78-11.82-11.48-22.08h15.13Z"/>
    </g>
  </g>
</svg>